<svg width="211" height="197" viewBox="0 0 211 197" fill="none" xmlns="http://www.w3.org/2000/svg">
<path opacity="0.99" d="M125 0L175 126.5L154 146L104 16L98 31L86 33L98 0H125ZM0 103C0 103 25.7822 70.4298 47 55C55.9389 48.4995 60.8211 44.3069 71 40C78.855 36.6764 83.5297 35.0002 92 34C98.2053 33.2673 108 34 108 34L115 54C115 54 102.714 52.7787 95 54C85.1132 55.5652 79.6928 58.0367 71 63C63.2665 67.4156 59.7688 71.2132 53 77C39.3553 88.6651 21 110 21 110L42 132L40 141L0 103ZM211 103C211 103 182.182 141.023 157 157C146.971 163.363 141.4 167.668 130 171C123.529 172.891 119.719 173.453 113 174C104.039 174.73 98.8443 174.615 90 173C83.1925 171.757 79.3793 170.682 73 168C64.1086 164.262 52 155 52 155L56 146C56 146 63.9531 153.568 70 157C75.4869 160.114 78.9241 161.3 85 163C96.683 166.268 103.976 166.608 116 165C119.947 164.472 122.159 164.053 126 163C137.455 159.859 143.137 155.617 153 149C169.969 137.615 190 112 190 112L159 79L146 44C146 44 150.996 45.5471 154 47C161.742 50.7449 164.529 55.3347 171 61C187.83 75.7352 211 103 211 103ZM22 197L71 67L85 60L32 197H22ZM175 197L159.5 159L180.5 140.5L202 197H175Z" fill="url(#paint0_linear_94_91)"/>
<defs>
<linearGradient id="paint0_linear_94_91" x1="211" y1="98.5" x2="0" y2="98.5" gradientUnits="userSpaceOnUse">
<stop stop-color="#A98F3A"/>
<stop offset="1" stop-color="#B9A55C"/>
</linearGradient>
</defs>
</svg>
